<mxfile host="app.diagrams.net" modified="2021-03-14T15:37:25.451Z" agent="5.0 (Macintosh; Intel Mac OS X 10_14_6) AppleWebKit/537.36 (KHTML, like Gecko) Chrome/88.0.4324.192 Safari/537.36" etag="ia5vtdJoYS9ELHdXH16k" version="14.3.1" type="github">
  <diagram id="cj0Z7pNimVpw6jqo-E7z" name="Page-1">
    <mxGraphModel dx="1402" dy="654" grid="1" gridSize="10" guides="1" tooltips="1" connect="1" arrows="1" fold="1" page="1" pageScale="1" pageWidth="850" pageHeight="1100" math="0" shadow="0">
      <root>
        <mxCell id="0" />
        <mxCell id="1" parent="0" />
        <mxCell id="IR-eqQ5YHkqLA4fKnOQH-5" value="&lt;font style=&quot;font-size: 18px&quot;&gt;data.json&lt;/font&gt;" style="aspect=fixed;pointerEvents=1;shadow=0;dashed=0;html=1;strokeColor=none;labelPosition=center;verticalLabelPosition=bottom;verticalAlign=top;align=center;fillColor=#00188D;shape=mxgraph.azure.script_file" parent="1" vertex="1">
          <mxGeometry x="860" y="525" width="47" height="50" as="geometry" />
        </mxCell>
        <mxCell id="01XX_RX0cQ2ucMH1AGHP-1" value="" style="strokeWidth=1;shadow=0;dashed=0;align=center;html=1;shape=mxgraph.mockup.containers.browserWindow;rSize=0;strokeColor=#666666;strokeColor2=#008cff;strokeColor3=#c4c4c4;mainText=,;recursiveResize=0;" vertex="1" parent="1">
          <mxGeometry x="50" y="270" width="550" height="380" as="geometry" />
        </mxCell>
        <mxCell id="01XX_RX0cQ2ucMH1AGHP-2" value="Example App" style="strokeWidth=1;shadow=0;dashed=0;align=center;html=1;shape=mxgraph.mockup.containers.anchor;fontSize=17;fontColor=#666666;align=left;" vertex="1" parent="01XX_RX0cQ2ucMH1AGHP-1">
          <mxGeometry x="60" y="12" width="110" height="26" as="geometry" />
        </mxCell>
        <mxCell id="01XX_RX0cQ2ucMH1AGHP-3" value="https://www.example.com/index.html" style="strokeWidth=1;shadow=0;dashed=0;align=center;html=1;shape=mxgraph.mockup.containers.anchor;rSize=0;fontSize=17;fontColor=#666666;align=left;" vertex="1" parent="01XX_RX0cQ2ucMH1AGHP-1">
          <mxGeometry x="130" y="60" width="250" height="26" as="geometry" />
        </mxCell>
        <mxCell id="yCAJ61VOqBWOnpiDdDVH-1" value="" style="aspect=fixed;pointerEvents=1;shadow=0;dashed=0;html=1;strokeColor=none;labelPosition=center;verticalLabelPosition=bottom;verticalAlign=top;align=center;fillColor=#00188D;shape=mxgraph.mscae.enterprise.application" parent="01XX_RX0cQ2ucMH1AGHP-1" vertex="1">
          <mxGeometry x="90" y="122.8" width="363.53" height="247.2" as="geometry" />
        </mxCell>
        <mxCell id="IR-eqQ5YHkqLA4fKnOQH-9" value="&lt;font style=&quot;font-size: 18px&quot;&gt;HTTP Request&lt;/font&gt;" style="html=1;shadow=0;dashed=0;align=center;verticalAlign=middle;shape=mxgraph.arrows2.arrow;dy=0.6;dx=40;notch=0;" parent="1" vertex="1">
          <mxGeometry x="450" y="445" width="442.5" height="70" as="geometry" />
        </mxCell>
        <mxCell id="IR-eqQ5YHkqLA4fKnOQH-10" value="&lt;font style=&quot;font-size: 18px&quot;&gt;HTTP Response&lt;/font&gt;" style="html=1;shadow=0;dashed=0;align=center;verticalAlign=middle;shape=mxgraph.arrows2.arrow;dy=0.6;dx=40;flipH=1;notch=0;" parent="1" vertex="1">
          <mxGeometry x="440" y="515" width="410" height="70" as="geometry" />
        </mxCell>
        <mxCell id="01XX_RX0cQ2ucMH1AGHP-4" value="" style="aspect=fixed;pointerEvents=1;shadow=0;dashed=0;html=1;strokeColor=none;labelPosition=center;verticalLabelPosition=bottom;verticalAlign=top;align=center;fillColor=#00188D;shape=mxgraph.mscae.enterprise.server_generic" vertex="1" parent="1">
          <mxGeometry x="960" y="420" width="103.2" height="215" as="geometry" />
        </mxCell>
      </root>
    </mxGraphModel>
  </diagram>
</mxfile>
